# xmcd CD database file
#
# Track frame offsets:
#	150
#	76625
#	129840
#	216511
#
# Disc length: 4057 seconds
#
# Revision: 0
# Processed by: cddbd v1.5.2PL0 Copyright (c) Steve Scherf et al.
# Submitted via: CDex 1.50
#
DISCID=2a0fd704
DTITLE=Art Pepper - The complete Village Vanguard sessions vol.1 cd2 second set (second show) thursday, july 28, 1977
DYEAR=1977
DGENRE=Jazz
TTITLE0=For Freddie
TTITLE1=Valse triste
TTITLE2=Live at the Vanguard
TTITLE3=Caravan - Blues for Heard
EXTD=YEAR: 1977
EXTT0=
EXTT1=
EXTT2=
EXTT3=
PLAYORDER=
